<svg width="65" height="65" viewBox="0 0 65 65" fill="none" xmlns="http://www.w3.org/2000/svg">
<path d="M40.1739 42.0974C40.0319 42.0766 39.8875 42.0944 39.753 42.1492C39.6184 42.204 39.4977 42.2942 39.401 42.4122C39.3033 42.529 39.2316 42.6699 39.1917 42.8234C39.1519 42.9769 39.1451 43.1388 39.1719 43.2959C39.6738 46.2413 41.3631 50.2837 46.5494 52.8005C47.1641 53.097 48.1133 53.3286 49.3172 53.6191C53.8233 54.7079 61.3591 56.532 63.2103 64.247C63.2414 64.376 63.2948 64.4969 63.3677 64.6028C63.4406 64.7087 63.5314 64.7975 63.635 64.8642C63.7386 64.9309 63.8529 64.9741 63.9715 64.9914C64.09 65.0087 64.2105 64.9998 64.3259 64.9651C64.4414 64.9304 64.5496 64.8707 64.6444 64.7893C64.7392 64.7079 64.8187 64.6064 64.8784 64.4907C64.9381 64.375 64.9768 64.2473 64.9923 64.1148C65.0078 63.9824 64.9998 63.8479 64.9688 63.7189C62.8284 54.8074 54.2907 52.7416 49.7027 51.6325C48.6407 51.3745 47.7223 51.1531 47.2732 50.9337C44.1563 49.4224 42.1433 47.1798 41.2704 44.2587C49.93 44.9778 53.8506 41.1244 54.0234 40.9497C54.1299 40.8419 54.212 40.7075 54.263 40.5575C54.3141 40.4074 54.3325 40.246 54.3169 40.0864C54.3013 39.9269 54.252 39.7737 54.1732 39.6395C54.0944 39.5053 53.9882 39.3939 53.8633 39.3144C48.8662 36.1253 48.8662 25.1053 48.8662 20.9552C48.8662 9.35023 41.8687 0.150319 32.8981 0.006094L32.6417 0C23.5402 0.0568774 16.1336 9.26695 16.1336 20.5327C16.1336 24.6827 16.1336 35.7048 11.1364 38.8919C11.0076 38.9755 10.899 39.093 10.8201 39.2341C10.7412 39.3752 10.6943 39.5357 10.6835 39.7017C10.6728 39.8677 10.6985 40.0341 10.7584 40.1864C10.8183 40.3388 10.9106 40.4725 11.0273 40.5759C11.2783 40.7933 16.8246 45.5344 23.6494 44.0942C22.7365 46.8934 20.7507 49.0466 17.7248 50.5152C17.2865 50.7285 16.4136 50.9621 15.4026 51.2303C10.7836 52.4572 2.18407 54.7424 0.0309909 63.7169C6.55283e-05 63.8458 -0.00781493 63.9804 0.00779939 64.1127C0.0234137 64.2451 0.062217 64.3728 0.121994 64.4884C0.242719 64.7219 0.441544 64.8923 0.674731 64.9621C0.907919 65.0318 1.15637 64.9953 1.36542 64.8604C1.57447 64.7256 1.727 64.5035 1.78946 64.243C3.66067 56.4345 11.2764 54.4134 15.8245 53.2027C16.9646 52.9 17.8648 52.6603 18.4503 52.378C23.6366 49.8611 25.3242 45.8188 25.8279 42.8733C25.8572 42.7008 25.846 42.5227 25.7954 42.3564C25.7447 42.1902 25.6563 42.0414 25.5388 41.9247C25.4215 41.8079 25.2791 41.727 25.1254 41.69C24.9718 41.653 24.8122 41.661 24.6623 41.7135C19.7396 43.4441 15.1916 41.0634 13.204 39.7431C17.9521 35.3026 17.9521 25.0829 17.9521 20.5327C17.9521 10.3821 24.5459 2.08212 32.7181 2.02727L32.9109 2.03946C40.9703 2.16743 47.0477 10.2989 47.0477 20.9552C47.0477 25.5075 47.0477 35.7495 51.8157 40.1899C50.1737 41.2381 46.4294 42.9343 40.1739 42.0974Z" fill="black"/>
</svg>
